<svg width="153" height="99" viewBox="0 0 153 99" fill="none" xmlns="http://www.w3.org/2000/svg">
<g style="mix-blend-mode:multiply">
<rect width="153" height="99" fill="transparent"/>
<path d="M85.352 31.1828C87.5377 31.4009 89.6141 32.6002 91.0348 34.6718L88.0841 36.9615C87.4284 35.9802 86.4448 35.326 85.352 35.1079V39.1421C88.0841 39.6872 90.8162 41.1046 90.8162 45.0297C90.5977 48.0826 88.1934 49.8271 85.352 50.2632V51.8987H82.8384V50.2632C80.8712 50.0452 79.0134 49.0639 77.702 46.9923L80.8712 44.8117C81.4177 45.5749 82.0734 46.12 82.8384 46.4471V42.522C79.8877 41.8678 77.1555 40.5595 77.3741 36.5253C77.5927 33.5815 80.1062 31.728 82.8384 31.2919V29.5474H85.352V31.1828ZM86.7727 44.9207C86.7727 43.9394 86.117 43.5033 85.2427 43.2852V46.6652C86.2262 46.2291 86.7727 45.793 86.7727 44.9207ZM82.8384 38.706V35.1079C81.9641 35.326 81.3084 35.9802 81.3084 36.8524C81.1991 37.8337 81.8548 38.3789 82.8384 38.706Z" fill="#0285C9"/>
<path d="M100.761 57.8953C99.8871 57.8953 99.1221 57.1321 99.1221 56.2599V20.1706L96.2807 22.3513C95.7343 22.7874 94.86 22.7874 94.3136 22.3513L89.8328 18.8623L85.3521 22.3513C84.8057 22.7874 83.9314 22.7874 83.385 22.3513L78.9043 18.8623L74.4236 22.3513C73.8771 22.7874 73.0029 22.7874 72.4564 22.3513L69.615 20.1706V56.3689C69.615 57.2411 68.85 58.0044 67.9757 58.0044C67.1014 58.0044 66.3364 57.2411 66.3364 56.3689V16.7907C66.3364 16.1365 66.6643 15.5914 67.2107 15.3733C67.7571 15.0462 68.4129 15.1552 68.9593 15.5914L73.44 19.0803L77.9207 15.5914C78.4671 15.1552 79.3414 15.1552 79.8878 15.5914L84.3686 19.0803L88.8493 15.5914C89.3957 15.1552 90.27 15.1552 90.8164 15.5914L95.2971 19.0803L99.7779 15.5914C100.324 15.2643 100.98 15.1552 101.526 15.3733C102.073 15.7004 102.401 16.2455 102.401 16.7907V56.2599C102.401 57.2411 101.636 57.8953 100.761 57.8953Z" fill="#CED3DB"/>
<path d="M111.034 90.3865H33.3321C29.07 90.3865 25.6821 87.0065 25.6821 82.7543V35.8711C25.6821 31.6188 29.07 28.2389 33.3321 28.2389H44.8071C49.0693 28.2389 52.4571 31.6188 52.4571 35.8711V37.8336H61.965C62.8393 37.8336 63.6043 38.5968 63.6043 39.4691C63.6043 40.3413 62.8393 41.1045 61.965 41.1045H50.8178C49.9436 41.1045 49.1786 40.3413 49.1786 39.4691V35.8711C49.1786 33.4724 47.2114 31.5098 44.8071 31.5098H33.3321C30.9278 31.5098 28.9607 33.4724 28.9607 35.8711V82.7543C28.9607 85.153 30.9278 87.1155 33.3321 87.1155H111.034C111.909 87.1155 112.674 87.8788 112.674 88.751C112.674 89.6233 112.018 90.3865 111.034 90.3865Z" fill="#415B9C"/>
<path d="M117.045 57.8953C116.171 57.8953 115.406 57.1321 115.406 56.2598V45.4658C115.406 43.0671 113.439 41.1045 111.035 41.1045H106.554C105.68 41.1045 104.915 40.3413 104.915 39.4691C104.915 38.5968 105.68 37.8336 106.554 37.8336H111.035C115.297 37.8336 118.685 41.2136 118.685 45.4658V56.2598C118.685 57.2411 118.029 57.8953 117.045 57.8953Z" fill="#415B9C"/>
<path d="M113.111 90.3865H33.6598C30.8184 90.3865 28.3048 88.9691 26.8841 86.5704C25.4634 84.2808 25.4634 81.555 26.6655 79.2654L37.157 58.8766C38.4684 56.2599 41.2005 54.6244 44.2605 54.6244H123.711C126.553 54.6244 129.066 56.0418 130.487 58.4405C131.908 60.7301 131.908 63.4559 130.706 65.7455L120.214 86.1343C118.793 88.751 116.061 90.3865 113.111 90.3865ZM44.2605 57.8953C42.512 57.8953 40.8727 58.8766 40.1077 60.294L29.3977 80.6828C28.742 81.9911 28.742 83.5176 29.507 84.8259C30.3813 86.2433 31.802 87.0065 33.5505 87.0065H113.001C114.75 87.0065 116.389 86.0253 117.154 84.6079L127.864 64.2191C128.52 62.9107 128.52 61.3843 127.755 60.0759C126.881 58.6585 125.46 57.8953 123.711 57.8953H44.2605Z" fill="#415B9C"/>
<path d="M21.8574 7.52317C21.8574 8.39542 22.6224 9.15863 23.4967 9.15863C24.371 9.15863 25.136 8.39542 25.136 7.52317C25.136 6.65093 25.136 2.61679 25.136 2.61679C25.136 1.74454 24.371 0.981323 23.4967 0.981323C22.6224 0.981323 21.8574 1.74454 21.8574 2.61679V7.52317Z" fill="#CED3DB"/>
<path d="M20.983 3.38C20.1088 3.38 19.3438 4.14322 19.3438 5.01547C19.3438 5.88771 20.1088 6.65093 20.983 6.65093C21.8573 6.65093 26.0102 6.65093 26.0102 6.65093C26.8845 6.65093 27.6495 5.88771 27.6495 5.01547C27.6495 4.14322 26.8845 3.38 26.0102 3.38H20.983Z" fill="#CED3DB"/>
<path d="M138.793 69.6707C138.793 70.543 139.558 71.3062 140.432 71.3062C141.307 71.3062 142.072 70.543 142.072 69.6707C142.072 68.7985 142.072 64.7644 142.072 64.7644C142.072 63.8921 141.307 63.1289 140.432 63.1289C139.558 63.1289 138.793 63.8921 138.793 64.7644V69.6707Z" fill="#CED3DB"/>
<path d="M137.919 65.5276C137.044 65.5276 136.279 66.2908 136.279 67.1631C136.279 68.0353 137.044 68.7985 137.919 68.7985C138.793 68.7985 142.946 68.7985 142.946 68.7985C143.82 68.7985 144.585 68.0353 144.585 67.1631C144.585 66.2908 143.82 65.5276 142.946 65.5276H137.919Z" fill="#CED3DB"/>
<path d="M13.9885 89.6233C14.8628 89.6233 15.6278 88.8601 15.6278 87.9879C15.6278 87.1156 14.8628 86.3524 13.9885 86.3524C13.1142 86.3524 2.73206 86.3524 2.73206 86.3524C1.85777 86.3524 1.09277 87.1156 1.09277 87.9879C1.09277 88.8601 1.85777 89.6233 2.73206 89.6233H13.9885Z" fill="#CED3DB"/>
<path d="M149.393 98.0188C150.814 98.0188 151.907 96.9285 151.907 95.6201C151.907 94.3117 150.814 93.2214 149.393 93.2214C147.973 93.2214 146.88 94.3117 146.88 95.6201C146.88 96.9285 148.082 98.0188 149.393 98.0188Z" fill="#CED3DB"/>
<path d="M8.41494 54.4064C9.83565 54.4064 10.9285 53.3161 10.9285 52.0077C10.9285 50.6993 9.83565 49.609 8.41494 49.609C6.99422 49.609 5.90137 50.6993 5.90137 52.0077C5.90137 53.3161 7.10351 54.4064 8.41494 54.4064Z" fill="#CED3DB"/>
<path d="M137.809 9.8128C138.683 9.8128 139.448 9.04958 139.448 8.17733C139.448 7.30509 137.809 6.54187 137.809 6.54187H135.077C134.203 6.54187 133.438 7.30509 133.438 8.17733C133.438 9.04958 134.203 9.8128 135.077 9.8128H137.809Z" fill="#CED3DB"/>
<path d="M129.066 9.8128C129.94 9.8128 130.705 9.04958 130.705 8.17733C130.705 7.30509 129.94 6.54187 129.066 6.54187C128.192 6.54187 117.81 6.54187 117.81 6.54187C116.935 6.54187 116.17 7.30509 116.17 8.17733C116.17 9.04958 116.935 9.8128 117.81 9.8128H129.066Z" fill="#CED3DB"/>
</g>
</svg>
