<svg width="35" height="35" viewBox="0 0 35 35" fill="none" xmlns="http://www.w3.org/2000/svg">
<path d="M17.5 0C7.85051 0 0 7.85051 0 17.5C0 27.1495 7.85051 35 17.5 35C27.1495 35 35 27.1495 35 17.5C35 7.85051 27.1496 0 17.5 0ZM17.5 33.1081C13.2128 33.1081 9.3242 31.3704 6.50051 28.5628C5.37293 27.4416 4.41574 26.1494 3.67044 24.7293C2.53541 22.5667 1.89192 20.1072 1.89192 17.5C1.89192 8.89367 8.89367 1.89192 17.5 1.89192C21.5822 1.89192 25.3026 3.46788 28.0868 6.04255C29.5303 7.3773 30.7224 8.98022 31.5819 10.7719C32.5598 12.8103 33.1081 15.0923 33.1081 17.5C33.1081 26.1063 26.1063 33.1081 17.5 33.1081Z" fill="#303D63"/>
<path d="M11.5184 13.527C12.5353 13.527 13.3627 14.3071 13.3627 15.3713H15.2546C15.2546 13.2429 13.5786 11.6351 11.5184 11.6351C9.45823 11.6351 7.78223 13.2429 7.78223 15.3713H9.67414C9.67414 14.3071 10.5016 13.527 11.5184 13.527Z" fill="#303D63"/>
<path d="M23.4813 13.527C24.4982 13.527 25.3256 14.3071 25.3256 15.3713H27.2175C27.2175 13.2429 25.5415 11.6351 23.4813 11.6351C21.4211 11.6351 19.7451 13.2429 19.7451 15.3713H21.637C21.637 14.3071 22.4644 13.527 23.4813 13.527Z" fill="#303D63"/>
<path d="M17.4663 27.1957C21.1264 27.1957 24.6342 25.3239 26.6425 22.216L25.0535 21.1892C23.2093 24.043 19.8348 25.6358 16.4579 25.2459C13.8255 24.9424 11.3912 23.4258 9.94591 21.1892L8.35693 22.216C10.1058 24.9225 13.0531 26.7577 16.241 27.1253C16.6503 27.1726 17.0589 27.1957 17.4663 27.1957Z" fill="#303D63"/>
</svg>
