<svg width="35" height="35" viewBox="0 0 35 35" fill="none" xmlns="http://www.w3.org/2000/svg">
<path d="M17.5 0C7.85051 0 0 7.85051 0 17.5C0 27.1495 7.85051 35 17.5 35C27.1495 35 35 27.1495 35 17.5C35 7.85051 27.1496 0 17.5 0ZM17.5 33.1081C13.2129 33.1081 9.3242 31.3704 6.50063 28.5628C5.37305 27.4416 4.41585 26.1494 3.67056 24.7293C2.53541 22.5667 1.89192 20.1072 1.89192 17.5C1.89192 8.89367 8.89367 1.89192 17.5 1.89192C21.5822 1.89192 25.3026 3.46788 28.0868 6.04255C29.5303 7.3773 30.7224 8.98022 31.5819 10.7719C32.5598 12.8103 33.1081 15.0923 33.1081 17.5C33.1081 26.1063 26.1063 33.1081 17.5 33.1081Z" fill="#303D63"/>
<path d="M11.785 15.4898C12.8299 15.4898 13.6769 14.6427 13.6769 13.5978C13.6769 12.553 12.8299 11.7059 11.785 11.7059C10.7401 11.7059 9.89307 12.553 9.89307 13.5978C9.89307 14.6427 10.7401 15.4898 11.785 15.4898Z" fill="#303D63"/>
<path d="M23.491 15.4898C24.5359 15.4898 25.383 14.6427 25.383 13.5978C25.383 12.553 24.5359 11.7059 23.491 11.7059C22.4462 11.7059 21.5991 12.553 21.5991 13.5978C21.5991 14.6427 22.4462 15.4898 23.491 15.4898Z" fill="#303D63"/>
<path d="M17.4663 27.1957C21.1264 27.1957 24.6342 25.3239 26.6425 22.216L25.0535 21.1892C23.2092 24.043 19.8358 25.6357 16.4579 25.2459C13.8255 24.9424 11.3912 23.4258 9.94591 21.1892L8.35693 22.216C10.1058 24.9225 13.0531 26.7577 16.241 27.1254C16.6503 27.1726 17.0589 27.1957 17.4663 27.1957Z" fill="#303D63"/>
</svg>
