<svg width="35" height="35" viewBox="0 0 35 35" fill="none" xmlns="http://www.w3.org/2000/svg">
<path d="M17.5 0C7.85051 0 0 7.85051 0 17.5C0 27.1495 7.85051 35 17.5 35C27.1495 35 35 27.1495 35 17.5C35 7.85051 27.1496 0 17.5 0ZM17.5 33.1081C13.2128 33.1081 9.3242 31.3704 6.50051 28.5628C5.37293 27.4416 4.41574 26.1494 3.67044 24.7293C2.53541 22.5667 1.89192 20.1072 1.89192 17.5C1.89192 8.89367 8.89367 1.89192 17.5 1.89192C21.5822 1.89192 25.3026 3.46788 28.0868 6.04255C29.5303 7.3773 30.7224 8.98022 31.5819 10.7719C32.5598 12.8103 33.1081 15.0923 33.1081 17.5C33.1081 26.1063 26.1063 33.1081 17.5 33.1081ZM10.8941 32.6822C10.9225 32.6946 10.9509 32.7072 10.9795 32.7195C10.9509 32.7071 10.9225 32.6946 10.8941 32.6822Z" fill="#303D63"/>
<path d="M11.6468 15.6078C12.6917 15.6078 13.5387 14.7608 13.5387 13.7159C13.5387 12.671 12.6917 11.824 11.6468 11.824C10.6019 11.824 9.75488 12.671 9.75488 13.7159C9.75488 14.7608 10.6019 15.6078 11.6468 15.6078Z" fill="#303D63"/>
<path d="M23.3529 15.6078C24.3977 15.6078 25.2448 14.7608 25.2448 13.7159C25.2448 12.671 24.3977 11.824 23.3529 11.824C22.308 11.824 21.4609 12.671 21.4609 13.7159C21.4609 14.7608 22.308 15.6078 23.3529 15.6078Z" fill="#303D63"/>
<path d="M27.8547 8.99032L21.8633 6.39551L21.1114 8.13153L27.1029 10.7263L27.8547 8.99032Z" fill="#303D63"/>
<path d="M7.89684 10.7271L13.8882 8.13232L13.1363 6.3963L7.14499 8.99107L7.89684 10.7271Z" fill="#303D63"/>
<path d="M25.3335 23.9778C25.4787 24.2351 25.6123 24.5026 25.7312 24.7729L27.4632 24.0118C27.3192 23.6842 27.1571 23.36 26.9814 23.0484C24.9686 19.4787 21.021 17.3085 16.9289 17.5212C12.8633 17.7315 9.17643 20.2792 7.53613 24.0118L9.26818 24.7731C10.6234 21.6893 13.6687 19.5844 17.0266 19.4106C20.4067 19.2352 23.6703 21.0281 25.3335 23.9778Z" fill="#303D63"/>
</svg>
