<svg width="35" height="35" viewBox="0 0 35 35" fill="none" xmlns="http://www.w3.org/2000/svg">
<path d="M17.5 0C7.85051 0 0 7.85051 0 17.5C0 27.1495 7.85051 35 17.5 35C27.1495 35 35 27.1495 35 17.5C35 7.85051 27.1495 0 17.5 0ZM17.5 33.1081C13.2128 33.1081 9.3242 31.3704 6.50051 28.5628C5.37293 27.4416 4.41574 26.1494 3.67044 24.7293C2.53541 22.5667 1.89192 20.1073 1.89192 17.5C1.89192 8.89367 8.89367 1.89192 17.5 1.89192C21.5822 1.89192 25.3026 3.46788 28.0868 6.04255C29.5303 7.3773 30.7224 8.98022 31.5819 10.772C32.5598 12.8103 33.1081 15.0923 33.1081 17.5C33.1081 26.1063 26.1063 33.1081 17.5 33.1081Z" fill="#303D63"/>
<path d="M20.8406 21.5192C22.363 21.308 23.9202 21.6482 25.2256 22.4775L26.2399 20.8805C24.5564 19.8112 22.5467 19.3727 20.5805 19.6454C17.4196 20.0846 14.7349 22.3277 13.7412 25.3601L15.5391 25.9492C16.3094 23.5984 18.3904 21.8596 20.8406 21.5192Z" fill="#303D63"/>
<path d="M11.6663 15.6078C12.7112 15.6078 13.5583 14.7608 13.5583 13.7159C13.5583 12.671 12.7112 11.824 11.6663 11.824C10.6215 11.824 9.77441 12.671 9.77441 13.7159C9.77441 14.7608 10.6215 15.6078 11.6663 15.6078Z" fill="#303D63"/>
<path d="M23.3729 15.6078C24.4178 15.6078 25.2648 14.7608 25.2648 13.7159C25.2648 12.671 24.4178 11.824 23.3729 11.824C22.328 11.824 21.481 12.671 21.481 13.7159C21.481 14.7608 22.328 15.6078 23.3729 15.6078Z" fill="#303D63"/>
</svg>
