<svg xmlns="http://www.w3.org/2000/svg" width="98.107" height="85" viewBox="0 0 98.107 85"><defs><style>.a{fill:#154c73;}</style></defs><g transform="translate(-6 -39.4)"><path class="a" d="M12.868,300.769a6.226,6.226,0,0,1-3.218-.9L6,297.669v33.847H19.244V297.1l-2.158,2A6.12,6.12,0,0,1,12.868,300.769Z" transform="translate(0 -207.136)"/><path class="a" d="M143.2,207.8v47.131h13.264V206.45l-6.809-4.65Z" transform="translate(-110.279 -130.535)"/><path class="a" d="M265.122,255.979a6.231,6.231,0,0,1-3.512-1.079L259,253.115V295.1h13.244V251.8l-3.041,2.669A6.25,6.25,0,0,1,265.122,255.979Z" transform="translate(-203.358 -170.724)"/><path class="a" d="M378.5,211.691h13.244V148L378.5,159.518Z" transform="translate(-299.41 -87.291)"/><path class="a" d="M83.6,45.267l5.474,5.317L61.57,74.346,40.948,60.258a3.73,3.73,0,0,0-4.65.353L12.438,82.783,6.1,78.937v8.712l4.925,2.963a3.731,3.731,0,0,0,4.474-.471L39.221,68.087,59.745,82.116a3.745,3.745,0,0,0,4.552-.255L94.455,55.784l4.513,4.376L104.188,39.4Z" transform="translate(-0.08)"/></g></svg>