<svg width="17" height="17" viewBox="0 0 17 17" fill="none" xmlns="http://www.w3.org/2000/svg">
<path d="M8.43164 4.23682C8.01136 4.23682 7.60051 4.36145 7.25105 4.59494C6.9016 4.82844 6.62923 5.16032 6.4684 5.54861C6.30756 5.93691 6.26548 6.36417 6.34747 6.77638C6.42947 7.18859 6.63185 7.56723 6.92904 7.86442C7.22623 8.16161 7.60487 8.36399 8.01707 8.44599C8.42928 8.52798 8.85655 8.4859 9.24484 8.32506C9.63314 8.16422 9.96502 7.89186 10.1985 7.5424C10.432 7.19295 10.5566 6.7821 10.5566 6.36182C10.5559 5.79846 10.3318 5.25839 9.93341 4.86004C9.53506 4.46169 8.995 4.23757 8.43164 4.23682ZM8.43164 7.42432C8.2215 7.42432 8.01608 7.362 7.84135 7.24525C7.66662 7.1285 7.53044 6.96256 7.45002 6.76842C7.3696 6.57427 7.34856 6.36064 7.38956 6.15453C7.43055 5.94843 7.53175 5.75911 7.68034 5.61052C7.82893 5.46192 8.01825 5.36073 8.22436 5.31973C8.43046 5.27874 8.6441 5.29978 8.83824 5.38019C9.03239 5.46061 9.19833 5.5968 9.31508 5.77152C9.43183 5.94625 9.49414 6.15167 9.49414 6.36182C9.49377 6.64349 9.3817 6.91353 9.18253 7.1127C8.98335 7.31188 8.71332 7.42394 8.43164 7.42432Z" fill="#033D7D"/>
<path d="M14.174 5.75858C13.8603 2.83812 11.4087 0.583496 8.43017 0.583496C7.38788 0.583346 6.36498 0.865279 5.46995 1.39939C4.57491 1.93351 3.84111 2.6999 3.34637 3.61728C2.85162 4.53466 2.61437 5.56884 2.65978 6.61014C2.70519 7.65144 3.03157 8.66104 3.60429 9.53187L3.59084 9.50991L7.60567 15.6731C7.69495 15.8097 7.81677 15.9219 7.96018 15.9998C8.10358 16.0776 8.26409 16.1186 8.42725 16.119C8.59042 16.1194 8.75113 16.0793 8.89494 16.0022C9.03875 15.9251 9.16115 15.8135 9.25113 15.6774L9.25325 15.6738L13.2681 9.51062C13.8816 8.5725 14.2069 7.47521 14.2038 6.35429C14.2038 6.14462 14.1925 5.93779 14.1712 5.73379L14.1733 5.75929L14.174 5.75858ZM12.3791 8.92979L8.43088 14.991L4.48263 8.92979C3.89679 8.02291 3.6385 6.94305 3.75058 5.86924C3.86267 4.79543 4.33839 3.79218 5.09888 3.02583C5.95171 2.173 7.12967 1.64529 8.43088 1.64529C9.73209 1.64529 10.91 2.173 11.7629 3.02583C12.5234 3.79218 12.9991 4.79543 13.1112 5.86924C13.2233 6.94305 12.965 8.02291 12.3791 8.92979Z" fill="#08427E"/>
</svg>
