<svg width="57" height="57" viewBox="0 0 57 57" fill="none" xmlns="http://www.w3.org/2000/svg">
<circle cx="28.5" cy="28.5" r="28.5" fill="#014688"/>
<path d="M39.2231 16.9235C37.8787 15.5693 36.2787 14.4957 34.5159 13.765C32.7531 13.0343 30.8628 12.6611 28.9546 12.6671C20.9561 12.6671 14.446 19.1771 14.446 27.1811C14.446 29.7386 15.1161 32.2394 16.3848 34.4363L14.3252 41.9587L22.0198 39.9394C24.147 41.0982 26.5304 41.7061 28.9527 41.7079H28.9582C36.9567 41.7079 43.4722 35.1978 43.4722 27.1939C43.4771 25.2863 43.1039 23.3967 42.3743 21.6342C41.6447 19.8717 40.573 18.2713 39.2213 16.9253L39.2231 16.9235ZM28.9582 39.2584C26.7964 39.2588 24.6743 38.6777 22.8143 37.576L22.3731 37.3123L17.8072 38.5078L19.0265 34.0573L18.7409 33.5996C17.5285 31.6788 16.8878 29.4525 16.8937 27.1811C16.8976 23.9811 18.1709 20.9134 20.4341 18.6512C22.6973 16.389 25.7656 15.1172 28.9655 15.1147C32.1858 15.1147 35.2193 16.3743 37.4949 18.6499C38.6179 19.7688 39.508 21.0992 40.1138 22.5641C40.7197 24.029 41.0292 25.5995 41.0245 27.1847C41.0191 33.8431 35.6074 39.2566 28.9582 39.2566V39.2584ZM35.5726 30.2201C35.212 30.037 33.427 29.1619 33.0957 29.0411C32.7643 28.9203 32.5226 28.858 32.2773 29.2242C32.0375 29.5848 31.34 30.4032 31.1276 30.6485C30.9153 30.8883 30.7047 30.9231 30.3441 30.74C29.9834 30.5569 28.8099 30.1743 27.4259 28.9386C26.3494 27.9775 25.619 26.7875 25.4066 26.4268C25.1942 26.0662 25.3828 25.8666 25.5677 25.689C25.7343 25.5279 25.9284 25.2661 26.1114 25.0538C26.2945 24.8414 26.3513 24.6931 26.4721 24.4478C26.5929 24.208 26.5343 23.9956 26.4428 23.8125C26.3513 23.6295 25.6245 21.8445 25.3279 21.1177C25.0368 20.4074 24.7329 20.5062 24.5095 20.4934C24.2972 20.4824 24.0574 20.4824 23.8175 20.4824C23.5777 20.4824 23.1823 20.574 22.8509 20.9346C22.5195 21.2953 21.5804 22.1759 21.5804 23.9608C21.5804 25.7458 22.8784 27.4685 23.0614 27.7138C23.2445 27.9537 25.619 31.6206 29.2566 33.1895C30.1207 33.5612 30.7963 33.7845 31.3217 33.9566C32.1913 34.2312 32.9803 34.1909 33.6046 34.0994C34.3021 33.9969 35.7502 33.2243 36.0541 32.3767C36.358 31.5291 36.358 30.8041 36.2665 30.654C36.1804 30.4929 35.9406 30.4032 35.5745 30.2183L35.5726 30.2201Z" fill="white"/>
</svg>
