<svg width="34" height="34" viewBox="0 0 34 34" fill="none" xmlns="http://www.w3.org/2000/svg">
<path d="M19.7372 16.5664C19.7372 18.3176 18.3176 19.7372 16.5664 19.7372C14.8151 19.7372 13.3955 18.3176 13.3955 16.5664C13.3955 14.8151 14.8151 13.3955 16.5664 13.3955C18.3176 13.3955 19.7372 14.8151 19.7372 16.5664Z" fill="white"/>
<path d="M23.9818 10.9573C23.8293 10.5443 23.5862 10.1704 23.2702 9.86357C22.9633 9.5476 22.5897 9.30443 22.1764 9.152C21.8413 9.02182 21.3377 8.86687 20.4103 8.82465C19.407 8.7789 19.1062 8.76904 16.5663 8.76904C14.0261 8.76904 13.7253 8.77865 12.7223 8.8244C11.7948 8.86687 11.2911 9.02182 10.9561 9.152C10.5428 9.30443 10.169 9.5476 9.86236 9.86357C9.54639 10.1704 9.30321 10.544 9.15054 10.9573C9.02036 11.2925 8.8654 11.7963 8.82319 12.7238C8.77744 13.7268 8.76758 14.0276 8.76758 16.5677C8.76758 19.1077 8.77744 19.4085 8.82319 20.4117C8.8654 21.3392 9.02036 21.8427 9.15054 22.1779C9.30321 22.5912 9.54613 22.9648 9.86211 23.2717C10.169 23.5876 10.5426 23.8308 10.9559 23.9832C11.2911 24.1137 11.7948 24.2686 12.7223 24.3108C13.7253 24.3566 14.0259 24.3662 16.566 24.3662C19.1064 24.3662 19.4073 24.3566 20.41 24.3108C21.3375 24.2686 21.8413 24.1137 22.1764 23.9832C23.0061 23.6632 23.6618 23.0075 23.9818 22.1779C24.112 21.8427 24.2669 21.3392 24.3094 20.4117C24.3551 19.4085 24.3647 19.1077 24.3647 16.5677C24.3647 14.0276 24.3551 13.7268 24.3094 12.7238C24.2672 11.7963 24.1122 11.2925 23.9818 10.9573ZM16.5663 21.4522C13.8684 21.4522 11.6813 19.2654 11.6813 16.5675C11.6813 13.8696 13.8684 11.6828 16.5663 11.6828C19.2639 11.6828 21.451 13.8696 21.451 16.5675C21.451 19.2654 19.2639 21.4522 16.5663 21.4522ZM21.6441 12.6312C21.0137 12.6312 20.5025 12.1201 20.5025 11.4897C20.5025 10.8593 21.0137 10.3481 21.6441 10.3481C22.2745 10.3481 22.7856 10.8593 22.7856 11.4897C22.7854 12.1201 22.2745 12.6312 21.6441 12.6312Z" fill="white"/>
<path d="M16.566 0C7.41827 0 0 7.41827 0 16.566C0 25.7138 7.41827 33.1321 16.566 33.1321C25.7138 33.1321 33.1321 25.7138 33.1321 16.566C33.1321 7.41827 25.7138 0 16.566 0ZM26.0212 20.4879C25.9752 21.5005 25.8142 22.1919 25.5791 22.797C25.0849 24.0748 24.0748 25.0849 22.797 25.5791C22.1921 25.8142 21.5005 25.9749 20.4882 26.0212C19.4738 26.0675 19.1497 26.0786 16.5663 26.0786C13.9827 26.0786 13.6589 26.0675 12.6442 26.0212C11.6318 25.9749 10.9402 25.8142 10.3353 25.5791C9.70035 25.3402 9.12553 24.9659 8.65031 24.4818C8.16649 24.0068 7.79213 23.4317 7.55326 22.797C7.31817 22.1921 7.15715 21.5005 7.11115 20.4882C7.06438 19.4735 7.05351 19.1494 7.05351 16.566C7.05351 13.9827 7.06438 13.6586 7.11089 12.6442C7.1569 11.6316 7.31767 10.9402 7.55275 10.3351C7.79162 9.70035 8.16624 9.12528 8.65031 8.65031C9.12528 8.16624 9.70035 7.79188 10.3351 7.553C10.9402 7.31792 11.6316 7.15715 12.6442 7.11089C13.6586 7.06464 13.9827 7.05351 16.566 7.05351C19.1494 7.05351 19.4735 7.06464 20.4879 7.11115C21.5005 7.15715 22.1919 7.31792 22.797 7.55275C23.4317 7.79162 24.0068 8.16624 24.482 8.65031C24.9659 9.12553 25.3405 9.70035 25.5791 10.3351C25.8144 10.9402 25.9752 11.6316 26.0215 12.6442C26.0677 13.6586 26.0786 13.9827 26.0786 16.566C26.0786 19.1494 26.0677 19.4735 26.0212 20.4879Z" fill="white"/>
</svg>
