<svg width="41" height="41" viewBox="0 0 41 41" fill="none" xmlns="http://www.w3.org/2000/svg">
<path d="M23.923 20.0794C23.923 22.202 22.2023 23.9227 20.0796 23.9227C17.957 23.9227 16.2363 22.202 16.2363 20.0794C16.2363 17.9568 17.957 16.2361 20.0796 16.2361C22.2023 16.2361 23.923 17.9568 23.923 20.0794Z" fill="#43AFDA"/>
<path d="M29.0678 13.2803C28.883 12.7797 28.5883 12.3265 28.2053 11.9546C27.8333 11.5716 27.3805 11.2769 26.8795 11.0921C26.4733 10.9343 25.863 10.7465 24.7388 10.6953C23.5228 10.6399 23.1582 10.6279 20.0796 10.6279C17.0007 10.6279 16.6361 10.6396 15.4204 10.695C14.2962 10.7465 13.6856 10.9343 13.2797 11.0921C12.7787 11.2769 12.3256 11.5716 11.9539 11.9546C11.5709 12.3265 11.2762 12.7794 11.0911 13.2803C10.9333 13.6866 10.7455 14.2972 10.6944 15.4214C10.6389 16.6371 10.627 17.0017 10.627 20.0806C10.627 23.1592 10.6389 23.5238 10.6944 24.7398C10.7455 25.8639 10.9333 26.4743 11.0911 26.8805C11.2762 27.3815 11.5706 27.8343 11.9536 28.2063C12.3256 28.5892 12.7784 28.884 13.2793 29.0687C13.6856 29.2268 14.2962 29.4146 15.4204 29.4658C16.6361 29.5213 17.0004 29.5329 20.0793 29.5329C23.1585 29.5329 23.5231 29.5213 24.7385 29.4658C25.8627 29.4146 26.4733 29.2268 26.8795 29.0687C27.8851 28.6809 28.6799 27.8861 29.0678 26.8805C29.2256 26.4743 29.4134 25.8639 29.4648 24.7398C29.5203 23.5238 29.5319 23.1592 29.5319 20.0806C29.5319 17.0017 29.5203 16.6371 29.4648 15.4214C29.4137 14.2972 29.2259 13.6866 29.0678 13.2803ZM20.0796 26.0009C16.8095 26.0009 14.1587 23.3503 14.1587 20.0803C14.1587 16.8102 16.8095 14.1597 20.0796 14.1597C23.3494 14.1597 26.0002 16.8102 26.0002 20.0803C26.0002 23.3503 23.3494 26.0009 20.0796 26.0009ZM26.2343 15.3092C25.4702 15.3092 24.8507 14.6897 24.8507 13.9256C24.8507 13.1614 25.4702 12.5419 26.2343 12.5419C26.9984 12.5419 27.6179 13.1614 27.6179 13.9256C27.6176 14.6897 26.9984 15.3092 26.2343 15.3092Z" fill="#43AFDA"/>
<path d="M20.0794 0C8.99153 0 0 8.99153 0 20.0794C0 31.1672 8.99153 40.1587 20.0794 40.1587C31.1672 40.1587 40.1587 31.1672 40.1587 20.0794C40.1587 8.99153 31.1672 0 20.0794 0ZM31.5398 24.833C31.484 26.0603 31.2888 26.8983 31.0039 27.6318C30.4049 29.1806 29.1806 30.4049 27.6318 31.0039C26.8986 31.2888 26.0603 31.4837 24.8333 31.5398C23.6037 31.5958 23.2109 31.6093 20.0797 31.6093C16.9481 31.6093 16.5556 31.5958 15.3258 31.5398C14.0987 31.4837 13.2604 31.2888 12.5272 31.0039C11.7576 30.7144 11.0609 30.2606 10.4849 29.6739C9.89844 29.0982 9.44468 28.4011 9.15514 27.6318C8.8702 26.8986 8.67504 26.0603 8.61927 24.8333C8.56259 23.6034 8.54942 23.2106 8.54942 20.0794C8.54942 16.9481 8.56259 16.5553 8.61897 15.3258C8.67473 14.0984 8.86959 13.2604 9.15453 12.5269C9.44407 11.7576 9.89813 11.0606 10.4849 10.4849C11.0606 9.89813 11.7576 9.44437 12.5269 9.15484C13.2604 8.8699 14.0984 8.67504 15.3258 8.61897C16.5553 8.5629 16.9481 8.54942 20.0794 8.54942C23.2106 8.54942 23.6034 8.5629 24.833 8.61927C26.0603 8.67504 26.8983 8.8699 27.6318 9.15453C28.4011 9.44407 29.0982 9.89813 29.6742 10.4849C30.2606 11.0609 30.7147 11.7576 31.0039 12.5269C31.2891 13.2604 31.484 14.0984 31.5401 15.3258C31.5961 16.5553 31.6093 16.9481 31.6093 20.0794C31.6093 23.2106 31.5961 23.6034 31.5398 24.833Z" fill="#43AFDA"/>
</svg>
