<svg width="34" height="34" viewBox="0 0 34 34" fill="none" xmlns="http://www.w3.org/2000/svg">
<path d="M33.1585 16.566C33.1585 7.41827 25.7402 0 16.5924 0C7.44464 0 0.0263672 7.41827 0.0263672 16.566C0.0263672 25.7138 7.44464 33.1321 16.5924 33.1321C16.6897 33.1321 16.7866 33.1301 16.8836 33.1283V20.2323H13.3245V16.0845H16.8836V13.0322C16.8836 9.49231 19.0446 7.56564 22.2023 7.56564C23.7144 7.56564 25.0142 7.67838 25.3931 7.72868V11.4283H23.2157C21.4978 11.4283 21.1652 12.2448 21.1652 13.4427V16.0845H25.2728L24.7374 20.2323H21.1652V32.4921C28.0895 30.507 33.1585 24.1276 33.1585 16.566Z" fill="white"/>
</svg>
