<svg xmlns="http://www.w3.org/2000/svg" width="56.868" height="45.256" viewBox="0 0 56.868 45.256"><defs><style>.a{fill:#ff7731;}</style></defs><g transform="translate(0.001 -46.994)"><g transform="translate(-0.001 46.994)"><path class="a" d="M86.015,120.939l-20.282,16.72a.479.479,0,0,1-.018.106.482.482,0,0,0-.018.105V154.8a2.291,2.291,0,0,0,2.258,2.258H81.5V143.514h9.031V157.06h13.544a2.293,2.293,0,0,0,2.258-2.259V137.87a.5.5,0,0,0-.036-.211Z" transform="translate(-57.581 -111.803)"/><path class="a" d="M56.476,69.04l-7.724-6.42V48.229A1.087,1.087,0,0,0,47.622,47.1H40.85a1.086,1.086,0,0,0-1.129,1.129v6.878l-8.607-7.2a4.376,4.376,0,0,0-5.361,0L.391,69.04A1.025,1.025,0,0,0,0,69.8a1.142,1.142,0,0,0,.247.829l2.187,2.61a1.2,1.2,0,0,0,.741.388,1.311,1.311,0,0,0,.847-.247L28.434,53.026,52.843,73.379a1.087,1.087,0,0,0,.741.246h.106a1.2,1.2,0,0,0,.741-.388l2.187-2.61a1.142,1.142,0,0,0,.246-.83A1.028,1.028,0,0,0,56.476,69.04Z" transform="translate(0.001 -46.994)"/></g></g></svg>