<svg xmlns="http://www.w3.org/2000/svg" width="77.293" height="79.536" viewBox="0 0 77.293 79.536"><defs><style>.a{fill:#154c73;}</style></defs><g transform="translate(-1.122)"><path class="a" d="M77.634,12.821,67.723,2.863c-1.372-1.385-4.1-.9-6.069,1.062l-9.088,9.057L40.064,0H1.122V79.536H62.39V32.987l14.167-14.11C78.514,16.914,79.011,14.2,77.634,12.821ZM41.107,10.377l6.887,7.159L44.224,21.3H41.107Zm1.432,38.557L28.828,54.485l-2.944-2.962,5.6-13.691Zm13.4,24.155H7.569V6.447h28.7V26.129h3.1L35.7,29.785H14.453v3.223H32.47l-2.913,2.9L26.59,43.166H14.453v3.226H25.275L21.117,56.546H14.452v3.221H49.07V56.546H30.4l14.045-5.69,4.479-4.464h.14v-.14l6.866-6.838V73.09h.006Z"/></g></svg>