<svg xmlns="http://www.w3.org/2000/svg" width="86" height="82.021" viewBox="0 0 86 82.021"><defs><style>.a{fill:#154c73;}</style></defs><g transform="translate(0 -10.99)"><path class="a" d="M86,42.775q0-1.912-2.895-2.378L57.161,36.625,45.533,13.109Q44.551,10.99,43,10.99t-2.532,2.119L28.839,36.625,2.894,40.4Q0,40.863,0,42.775a3.938,3.938,0,0,0,1.292,2.481l18.813,18.3L15.66,89.393a8.393,8.393,0,0,0-.1,1.034,3.046,3.046,0,0,0,.542,1.835,1.875,1.875,0,0,0,1.628.75,4.384,4.384,0,0,0,2.067-.62L43,80.193l23.207,12.2a4.183,4.183,0,0,0,2.067.62,1.822,1.822,0,0,0,1.577-.75,3.052,3.052,0,0,0,.541-1.835,7.807,7.807,0,0,0-.052-1.034L65.895,63.552l18.761-18.3A3.734,3.734,0,0,0,86,42.775Z" transform="translate(0 0)"/></g></svg>