<svg width="24" height="24" viewBox="0 0 24 24" fill="none" xmlns="http://www.w3.org/2000/svg">
<path d="M14.2969 12C14.2969 13.2686 13.2686 14.2969 12 14.2969C10.7314 14.2969 9.70312 13.2686 9.70312 12C9.70312 10.7314 10.7314 9.70312 12 9.70312C13.2686 9.70312 14.2969 10.7314 14.2969 12Z" fill="#3A3A3A"/>
<path d="M17.3723 7.93646C17.2619 7.63727 17.0858 7.36646 16.8569 7.14417C16.6346 6.91528 16.364 6.73914 16.0646 6.62872C15.8218 6.53442 15.457 6.42218 14.7852 6.3916C14.0585 6.35846 13.8406 6.35132 12.0007 6.35132C10.1607 6.35132 9.94281 6.35828 9.21625 6.39142C8.54443 6.42218 8.1795 6.53442 7.93689 6.62872C7.63751 6.73914 7.3667 6.91528 7.14459 7.14417C6.91571 7.36646 6.73956 7.63708 6.62897 7.93646C6.53467 8.17926 6.42242 8.54419 6.39185 9.216C6.3587 9.94257 6.35156 10.1605 6.35156 12.0005C6.35156 13.8403 6.3587 14.0582 6.39185 14.785C6.42242 15.4568 6.53467 15.8215 6.62897 16.0643C6.73956 16.3637 6.91553 16.6343 7.14441 16.8566C7.3667 17.0855 7.63733 17.2617 7.93671 17.3721C8.1795 17.4666 8.54443 17.5788 9.21625 17.6094C9.94281 17.6425 10.1605 17.6495 12.0005 17.6495C13.8408 17.6495 14.0587 17.6425 14.785 17.6094C15.4568 17.5788 15.8218 17.4666 16.0646 17.3721C16.6655 17.1403 17.1405 16.6653 17.3723 16.0643C17.4666 15.8215 17.5789 15.4568 17.6096 14.785C17.6428 14.0582 17.6497 13.8403 17.6497 12.0005C17.6497 10.1605 17.6428 9.94257 17.6096 9.216C17.579 8.54419 17.4668 8.17926 17.3723 7.93646ZM12.0007 15.5386C10.0464 15.5386 8.46222 13.9546 8.46222 12.0003C8.46222 10.046 10.0464 8.46198 12.0007 8.46198C13.9548 8.46198 15.5391 10.046 15.5391 12.0003C15.5391 13.9546 13.9548 15.5386 12.0007 15.5386ZM15.679 9.14899C15.2223 9.14899 14.8521 8.77875 14.8521 8.32208C14.8521 7.86542 15.2223 7.49518 15.679 7.49518C16.1356 7.49518 16.5059 7.86542 16.5059 8.32208C16.5057 8.77875 16.1356 9.14899 15.679 9.14899Z" fill="#3A3A3A"/>
<path d="M12 0C5.3736 0 0 5.3736 0 12C0 18.6264 5.3736 24 12 24C18.6264 24 24 18.6264 24 12C24 5.3736 18.6264 0 12 0ZM18.8491 14.8409C18.8157 15.5744 18.6991 16.0752 18.5288 16.5135C18.1708 17.4391 17.4391 18.1708 16.5135 18.5288C16.0754 18.6991 15.5744 18.8156 14.8411 18.8491C14.1063 18.8826 13.8715 18.8906 12.0002 18.8906C10.1287 18.8906 9.8941 18.8826 9.15912 18.8491C8.42578 18.8156 7.9248 18.6991 7.48663 18.5288C7.02667 18.3558 6.61029 18.0846 6.26605 17.7339C5.91559 17.3899 5.64441 16.9733 5.47137 16.5135C5.30109 16.0754 5.18445 15.5744 5.15112 14.8411C5.11725 14.1061 5.10938 13.8713 5.10938 12C5.10938 10.1287 5.11725 9.89392 5.15094 9.15912C5.18427 8.4256 5.30072 7.9248 5.47101 7.48645C5.64404 7.02667 5.91541 6.61011 6.26605 6.26605C6.61011 5.91541 7.02667 5.64423 7.48645 5.47119C7.9248 5.3009 8.4256 5.18445 9.15912 5.15094C9.89392 5.11743 10.1287 5.10938 12 5.10938C13.8713 5.10938 14.1061 5.11743 14.8409 5.15112C15.5744 5.18445 16.0752 5.3009 16.5135 5.47101C16.9733 5.64404 17.3899 5.91541 17.7341 6.26605C18.0846 6.61029 18.356 7.02667 18.5288 7.48645C18.6993 7.9248 18.8157 8.4256 18.8492 9.15912C18.8828 9.89392 18.8906 10.1287 18.8906 12C18.8906 13.8713 18.8828 14.1061 18.8491 14.8409Z" fill="#3A3A3A"/>
</svg>
