<svg width="25" height="25" viewBox="0 0 25 25" fill="none" xmlns="http://www.w3.org/2000/svg">
<path d="M11.0095 0C4.93901 0 0 4.93901 0 11.0095C0 17.0803 4.93901 22.0189 11.0095 22.0189C17.0803 22.0189 22.0189 17.0803 22.0189 11.0095C22.0189 4.93901 17.0803 0 11.0095 0ZM11.0095 19.9865C6.05962 19.9865 2.03252 15.9594 2.03252 11.0095C2.03252 6.05967 6.05962 2.03252 11.0095 2.03252C15.9593 2.03252 19.9864 6.05962 19.9864 11.0095C19.9864 15.9593 15.9593 19.9865 11.0095 19.9865Z" fill="black"/>
<path d="M24.702 23.2647L18.8754 17.4381C18.4784 17.0411 17.8354 17.0411 17.4384 17.4381C17.0414 17.8348 17.0414 18.4785 17.4384 18.8752L23.265 24.7017C23.4634 24.9002 23.7233 24.9995 23.9835 24.9995C24.2433 24.9995 24.5034 24.9002 24.702 24.7017C25.099 24.305 25.099 23.6614 24.702 23.2647Z" fill="black"/>
</svg>
