<svg width="16" height="17" viewBox="0 0 16 17" fill="none" xmlns="http://www.w3.org/2000/svg">
<path d="M15.8211 13.3409C15.799 12.7004 15.5441 12.1028 15.1032 11.658C14.2401 10.787 13.5169 10.2842 12.8273 10.0757C11.8771 9.78837 10.997 10.0497 10.2116 10.8523C10.2104 10.8535 10.2092 10.8548 10.208 10.856L9.37241 11.7239C8.85017 11.4158 7.83468 10.7394 6.73754 9.5914L6.6562 9.50636C5.55887 8.35815 4.91252 7.29535 4.61841 6.74949L5.44787 5.87505C5.44904 5.87382 5.45022 5.8726 5.45139 5.87133C6.21845 5.04951 6.46815 4.1286 6.19357 3.13426C5.99428 2.41271 5.51382 1.65595 4.68146 0.752735C4.25641 0.291506 3.68528 0.0247219 3.07323 0.00163292C2.46082 -0.0214884 1.87315 0.201575 1.41739 0.629659L1.39965 0.646345C1.39143 0.654074 1.38339 0.662061 1.37554 0.670242C0.468245 1.61964 -0.00736162 2.94874 8.61463e-05 4.51391C0.0127875 7.17276 1.40929 10.2134 3.73568 12.6477C4.17436 13.1067 4.67293 13.561 5.21751 13.9979C5.48838 14.2152 5.87635 14.1617 6.08405 13.8782C6.29178 13.5947 6.24055 13.1888 5.96964 12.9714C5.46792 12.5689 5.0104 12.1522 4.60976 11.7331C2.50844 9.5343 1.24729 6.83315 1.2362 4.50747C1.23048 3.30206 1.577 2.29594 2.23843 1.59661L2.24316 1.59215C2.69241 1.17018 3.37257 1.19586 3.79168 1.65062C5.39184 3.38707 5.27598 4.20686 4.56891 4.96556L3.42319 6.17343C3.24351 6.36286 3.19348 6.64834 3.29722 6.89216C3.3263 6.96053 4.02995 8.58752 5.78234 10.4212L5.86371 10.5062C7.61588 12.3397 9.17076 13.076 9.2361 13.1064C9.46905 13.215 9.74193 13.1627 9.92293 12.9746L11.0773 11.7757C11.8024 11.0358 12.5859 10.9147 14.2452 12.5891C14.6798 13.0275 14.7044 13.7393 14.3012 14.2093L14.2968 14.2144C13.634 14.9009 12.6827 15.2632 11.5433 15.2632C11.5339 15.2632 11.5245 15.2632 11.5151 15.2631C10.6043 15.2584 9.54964 14.9971 8.4652 14.5077C8.15184 14.3662 7.78808 14.5174 7.6529 14.8454C7.5177 15.1734 7.66217 15.5539 7.97563 15.6954C9.22914 16.2612 10.4179 16.5509 11.5089 16.5566C11.5205 16.5567 11.532 16.5567 11.5436 16.5567C13.0243 16.5567 14.2819 16.0594 15.1821 15.1174C15.19 15.1091 15.1976 15.1008 15.2049 15.0921L15.221 15.0735C15.6301 14.5966 15.8432 13.9813 15.8211 13.3409Z" fill="#08427E"/>
</svg>
