<svg width="41" height="41" viewBox="0 0 41 41" fill="none" xmlns="http://www.w3.org/2000/svg">
<path d="M40.1587 20.0794C40.1587 8.99153 31.1672 0 20.0794 0C8.99153 0 0 8.99153 0 20.0794C0 31.1672 8.99153 40.1587 20.0794 40.1587C20.1973 40.1587 20.3147 40.1563 20.4323 40.1541V24.5232H16.1184V19.4957H20.4323V15.7961C20.4323 11.5054 23.0516 9.17016 26.879 9.17016C28.7118 9.17016 30.2873 9.30681 30.7465 9.36778V13.8521H28.1073C26.0251 13.8521 25.6219 14.8417 25.6219 16.2936V19.4957H30.6007L29.9518 24.5232H25.6219V39.383C34.0148 36.9769 40.1587 29.2446 40.1587 20.0794Z" fill="#43AFDA"/>
</svg>
